Coordinates
version=1
nRows=11
nColumns=36
inDegrees=yes

Units are S.I. units (second, meters, Newtons, ...)
If the header above contains a line with 'inDegrees', this indicates whether rotational values are in degrees (yes) or radians (no).

endheader
time	pelvis_tilt	pelvis_list	pelvis_rotation	pelvis_tx	pelvis_ty	pelvis_tz	hip_flexion_r	hip_adduction_r	hip_rotation_r	knee_angle_r	knee_angle_r_beta	ankle_angle_r	subtalar_angle_r	mtp_angle_r	hip_flexion_l	hip_adduction_l	hip_rotation_l	knee_angle_l	knee_angle_l_beta	ankle_angle_l	subtalar_angle_l	mtp_angle_l	lumbar_extension	lumbar_bending	lumbar_rotation	arm_flex_r	arm_add_r	arm_rot_r	elbow_flex_r	pro_sup_r	arm_flex_l	arm_add_l	arm_rot_l	elbow_flex_l	pro_sup_l
      1.76666670	     -8.32436694	      1.38341451	     -0.15279106	     -0.34300818	      1.23002113	     -0.03978138	      6.18203143	     -0.17599801	      2.47652935	      0.43251121	      0.00754874	     12.90958018	     -3.47082736	     -7.49999987	      5.14844627	      1.12206399	      1.46531954	      3.47225505	      0.06060228	      4.44342664	     -9.42863112	     -7.49999987	      2.83520491	     -0.36149741	      3.23905531	      1.94394490	     -7.08059684	      9.05651596	     23.81886987	     78.60887560	     -3.51749288	     -8.46717081	     10.40066839	     33.11394458	     75.16338046
      1.78333330	     -8.59957374	      1.46249476	     -0.10402364	     -0.34326420	      1.22966912	     -0.03983156	      6.57276772	     -0.22862457	      2.57248675	      0.40334221	      0.00703965	     12.84131090	     -3.50791455	     -7.49999987	      5.54431774	      1.21343663	      1.52405664	      3.59837789	      0.06280354	      4.25311548	     -9.80536256	     -7.49999987	      3.21174295	     -0.47598561	      3.25063566	      1.99481898	     -7.07405893	      9.58522222	     23.50035200	     79.38763567	     -3.46400576	     -8.70320584	     11.10598910	     33.07537406	     76.11603063
      1.80000000	     -8.57354911	      1.52122666	     -0.19794100	     -0.34362540	      1.22871931	     -0.03948590	      6.61425742	     -0.25505725	      2.40495325	      0.40595112	      0.00708518	     12.97369330	     -3.03583710	     -7.49999987	      5.47675514	      1.24428477	      1.25683273	      3.50044070	      0.06109422	      4.39057068	     -9.42866563	     -7.49999987	      3.11367868	     -0.54523269	      3.29705304	      2.05137193	     -6.96199499	      9.36963777	     23.49819506	     78.35478170	     -3.29853512	     -8.65284413	     10.98223936	     32.86694309	     75.33145308
      1.81666670	     -8.60346832	      1.54015187	     -0.27527180	     -0.34333316	      1.22908511	     -0.03966787	      6.70809528	     -0.24742740	      2.44253796	      0.40934056	      0.00714434	     12.95311885	     -3.03675387	     -7.49999987	      5.50198681	      1.24242288	      1.30499947	      3.43279575	      0.05991359	      4.37036573	     -9.41944682	     -7.49999987	      3.09252725	     -0.56277064	      3.28902503	      2.13623482	     -6.93554053	      9.37973445	     23.52226747	     78.38774459	     -3.23149618	     -8.63914850	     10.99033243	     32.88488691	     75.36461815
      1.83333330	     -8.51382546	      1.49487707	     -0.30664599	     -0.34354645	      1.22579226	     -0.03941892	      6.63084348	     -0.18213674	      2.60556600	      0.42386962	      0.00739792	     12.71348357	     -3.45449731	     -7.49999987	      5.33149436	      1.16971781	      1.41847348	      3.26452470	      0.05697670	      4.14022382	     -9.60567499	     -7.49999987	      2.94021355	     -0.52954668	      3.24689451	      2.29400558	     -6.95176218	      9.55388702	     23.35045207	     78.98950399	     -3.06144582	     -8.60665340	     11.02955760	     32.68070501	     75.97109805
      1.85000000	     -8.43109919	      1.46175725	     -0.40895685	     -0.34360335	      1.22620548	     -0.03968041	      6.58316657	     -0.14462875	      2.52942254	      0.44159833	      0.00770734	     12.65688825	     -3.51837790	     -7.49999987	      5.21133891	      1.13877774	      1.47787293	      3.08397345	      0.05382549	      4.33322423	     -9.35330033	     -7.49999987	      2.76971168	     -0.47415634	      3.27805806	      2.29205663	     -6.98017860	      9.46696527	     23.56054961	     78.14057315	     -2.99611294	     -8.52009082	     10.93332697	     32.61529348	     75.34995766
      1.86666670	     -8.43296129	      1.44508614	     -0.49408243	     -0.34377373	      1.22848687	     -0.03948439	      6.63824157	     -0.09184070	      2.50666928	      0.47835163	      0.00834881	     12.65606364	     -3.53981506	     -7.49999987	      5.20935866	      1.12152868	      1.51826860	      3.06157044	      0.05343448	      4.36361878	     -9.34631754	     -7.49999987	      2.75451331	     -0.49276179	      3.29764526	      2.31266872	     -6.96357583	      9.47506018	     23.56313717	     78.15330294	     -3.01445038	     -8.52288616	     10.93596178	     32.60873328	     75.36183356
      1.88333330	     -8.39086340	      1.44013321	     -0.48149303	     -0.34383588	      1.22880774	     -0.03962747	      6.63079599	     -0.08589273	      2.66510478	      0.46836479	      0.00817451	     12.45192426	     -3.93309180	     -7.49999987	      5.16087878	      1.13910132	      1.58117958	      2.91218610	      0.05082724	      4.24497623	     -9.56334384	     -7.49999987	      2.67004499	     -0.49631237	      3.28147953	      2.40364619	     -6.99832470	     10.16587906	     23.47044001	     77.37026562	     -3.02963784	     -8.63652512	     11.38239146	     32.75388663	     74.88459499
      1.90000000	     -8.33786073	      1.48796914	     -0.52491379	     -0.34350638	      1.23135778	     -0.03944179	      6.58877434	     -0.11432963	      2.61840287	      0.48650078	      0.00849104	     12.49782908	     -3.79128981	     -7.49999987	      5.09647670	      1.16645010	      1.41855791	      2.91866254	      0.05094027	      4.35000600	     -9.36938344	     -7.49999987	      2.59604589	     -0.56806730	      3.37159578	      2.34600750	     -6.96354849	      9.94483194	     23.62448370	     76.34139831	     -2.99647059	     -8.53842284	     11.13848767	     32.70434894	     74.09531465
      1.91666670	     -8.38097381	      1.49255811	     -0.40296073	     -0.34356731	      1.23138479	     -0.03969733	      6.60606565	     -0.12598376	      2.44078426	      0.47849750	      0.00835136	     12.58023406	     -3.69512030	     -7.49999987	      5.27381792	      1.16705278	      1.44881664	      3.07381550	      0.05364820	      4.13726308	     -9.78856954	     -7.49999987	      2.62856237	     -0.60941363	      3.32007107	      2.41726170	     -6.90446678	      9.90401203	     23.37509083	     75.97077832	     -2.89269483	     -8.51854072	     11.19730911	     32.54400758	     73.88796745
      1.93333330	     -8.33232080	      1.52487032	     -0.47769911	     -0.34347009	      1.23092913	     -0.03947742	      6.52551007	     -0.16595889	      2.37658819	      0.48725199	      0.00850415	     12.37793148	     -3.92843747	     -7.49999987	      5.29912620	      1.16816290	      1.11973204	      3.27431040	      0.05714750	      4.05625487	     -9.67066815	     -7.49999987	      2.57490050	     -0.62990259	      3.19098168	      2.51005854	     -7.02077061	     10.21089245	     23.47215986	     80.50004281	     -3.05418392	     -8.51776473	     10.59491854	     32.69874984	     78.21937441
